<svg xmlns="http://www.w3.org/2000/svg" xmlns:sketch="http://www.bohemiancoding.com/sketch/ns" xmlns:xlink="http://www.w3.org/1999/xlink" height="50px" version="1.1" viewBox="0 0 50 50" width="50px"><title/><defs/><g fill="none" fill-rule="evenodd" id="Page-1" stroke="none" stroke-width="1"><g fill="#FFFFFF" id="Codepen"><path d="M 25,50 C 38.807119,50 50,38.807119 50,25 50,11.192881 38.807119,0 25,0 11.192881,0 0,11.192881 0,25 0,38.807119 11.192881,50 25,50 Z m 0,-3 C 37.150265,47 47,37.150265 47,25 47,12.849735 37.150265,3 25,3 12.849735,3 3,12.849735 3,25 3,37.150265 12.849735,47 25,47 Z" /><path d="m 42.209661,20.320627 c 0,0 0,0 0,0 0,-0.1 0,-0.1 0,-0.2 0,0 0,0 0,-0.1 0,0 0,-0.1 0,-0.1 0,0 0,0 0,-0.1 0,0 0,-0.1 -0.1,-0.1 0,0 0,0 0,-0.1 0,0 0,-0.1 -0.1,-0.1 0,0 0,0 -0.1,-0.1 0,0 0,-0.1 -0.1,-0.1 0,0 0,0 -0.1,-0.1 0,0 -0.1,0 -0.1,-0.1 0,0 0,0 -0.1,-0.1 0,0 0,0 0,0 l -15.7,-10.3000004 c -0.5,-0.3 -1.2,-0.3 -1.7,0 L 8.3096606,19.320627 c 0,0 0,0 0,0 0,0 0,0 -0.1,0.1 0,0 -0.1,0 -0.1,0.1 0,0 0,0 -0.1,0.1 0,0 -0.1,0.1 -0.1,0.1 0,0 0,0 -0.1,0.1 0,0 0,0.1 -0.1,0.1 0,0 0,0 0,0.1 0,0 0,0.1 -0.1,0.1 0,0 0,0 0,0.1 0,0 0,0.1 0,0.1 0,0 0,0 0,0.1 0,0 0,0.1 0,0.1 0,0 0,0 0,0.1 0,0.1 0,0.1 0,0.2 l 0,10.5 c 0,0.1 0,0.1 0,0.2 0,0 0,0 0,0.1 0,0 0,0.1 0,0.1 0,0 0,0 0,0.1 0,0 0,0.1 0,0.1 0,0 0,0 0,0.1 0,0 0,0.1 0.1,0.1 0,0 0,0 0,0.1 0,0 0,0.1 0.1,0.1 0,0 0,0 0.1,0.1 0,0 0,0.1 0.1,0.1 0,0 0,0 0.1,0.1 0,0 0.1,0 0.1,0.1 0,0 0,0 0.1,0.1 0,0 0,0 0,0 l 15.8000004,10.1 c 0.2,0.2 0.5,0.3 0.8,0.3 0.3,0 0.6,-0.1 0.8,-0.3 l 15.8,-10.6 c 0,0 0,0 0,0 0,0 0,0 0.1,-0.1 0,0 0.1,0 0.1,-0.1 0,0 0,0 0.1,-0.1 0,0 0.1,-0.1 0.1,-0.1 0,0 0,0 0.1,-0.1 0,0 0,-0.1 0.1,-0.1 0,0 0,0 0,-0.1 0,0 0,-0.1 0.1,-0.1 0,0 0,0 0,-0.1 0,0 0,-0.1 0,-0.1 0,0 0,0 0,-0.1 0,0 0,-0.1 0,-0.1 0,0 0,0 0,-0.1 0,-0.1 0,-0.1 0,-0.2 l 0,-10.3 c 0.1,0 0.1,-0.1 0,-0.2 z m -15.8,-7.5 11.7,7.7 -5.2,3.5 -6.5,-4.3 0,-6.9 z m -2.9,0 0,6.9 -6.5,4.3 -5.2,-3.5 11.7,-7.7 z m -12.9,10.5 3.7,2.5 -3.7,2.5 0,-5 z m 12.9,15.5 -11.7,-7.8 5.2,-3.5 6.5,4.3 0,7 z m 1.4,-9.5 -5.3,-3.5 5.3,-3.5 5.3,3.5 -5.3,3.5 z m 1.5,9.5 0,-6.9 6.5,-4.3 5.2,3.5 -11.7,7.7 z m 12.9,-10.5 -3.7,-2.5 3.7,-2.5 0,5 z" /></g></g></svg>
